<?xml version="1.0" encoding="UTF-8"?>
<svg id="Camada_1" data-name="Camada 1" xmlns="http://www.w3.org/2000/svg" viewBox="0 0 1965.39 1431.54">
  <defs>
    <style>
      .cls-1 {
        fill: #f8f8f8;
      }
    </style>
  </defs>
  <path class="cls-1" d="M942.74,995.2c55.45,21.15,120.59,13.69,178.4,2.42,57.48-12.3,111.76-31.82,165.33-59.2l-37.85,173.29c-81.38,27.93-165.54,42.68-250.8,43.89-38.3.05-75.23-1.97-112.57-8.83-79.68-14.66-146.46-48.83-191.8-117.44-48.08-72.75-64.06-154.48-63.33-241.13.34-40.46,4.77-79.6,11.03-119.52,11.81-75.23,36.84-147.13,74.66-213.27,46.22-80.83,110.63-151.46,191.13-198.87,79.79-46.99,172.15-68.01,264.29-58.91,55.85,5.52,113.6,22.75,159.1,55.92,27.93,20.36,49.53,46.7,63.71,78.31,31.39,70,23.98,154.8-8.36,223.33-12.6,26.71-29.36,50.06-49.92,71.13-75.25,77.08-193.16,109.51-297.67,123.52-50.64,6.74-100.74,9.92-151.68,10.11l-50.86.19c-1.11,26.48-1.82,52.15-.22,78.4,4.33,71.37,39.53,130.54,107.42,156.66ZM1209.1,485.71c9.49-23.03,11.96-47.88,7.38-72.32-5.35-28.53-24.83-50.37-52.33-59.77-35.18-12.03-72.71-10.03-107.91,2.25-33.19,11.58-62.96,29.39-89.62,52.37-59.79,51.54-95.15,122.47-109.84,199.79l46.55-.27c95.56-.56,264.89-22.88,305.77-122.05Z"/>
  <path class="cls-1" d="M230.11,1425.76c-75.32,12.61-155.16,3.35-230.11-15.75l43.49-151.2c39.9,10.39,81.87,17.07,121.71,8.01,47.14-9.92,76.8-47.95,95.82-90.3,8.03-18.51,13.88-37.47,18.72-57.33l163.07-750-115.64-.09-36.47-156.8,367.09.04-81.42,385.52-86.35,405.49-28.55,129.61-22.69,85.38c-6.71,25.25-15.5,48.93-26.41,72.53-8.32,17.99-17.94,34.2-31.09,49.05-38.14,43.1-94,76.27-151.16,85.85Z"/>
  <path class="cls-1" d="M1673.73,995.75l47.64-16.02c-28.51,48.82-24.69,108.37,9.73,152.47-19.32,9.24-39,14.18-59.73,17.94-34.18,5.27-67.99,6.47-102.44,3.88-49.77-4.75-96.54-21.07-129.99-59.11-38.07-43.29-50.32-96.62-47.22-153.76,1.39-25.55,4.43-49.88,9.91-74.96l25.82-118.22,74.8-320.06L1602.87.01h173.56s-49.27,212.41-49.27,212.41l145.42-.2h91.05c.71.04,1.83.08,1.75.41l-.45,1.91-35.93,154.27-22.14-.04-214.72-.07-107.37,472.28c-5.73,25.2-8.33,50.64-8.02,76.1.48,38.92,14.64,76.61,56.05,81.78,13.76,1.64,26.86.11,40.92-3.11Z"/>
  <circle class="cls-1" cx="1837.19" cy="1049.08" r="94.35"/>
</svg>