<?xml version="1.0" encoding="UTF-8"?>
<svg id="Camada_1" data-name="Camada 1" xmlns="http://www.w3.org/2000/svg" viewBox="0 0 80 37.78">
  <defs>
    <style>
      .cls-1 {
        fill: #e9e9e9;
      }

      .cls-2 {
        fill: #f8f8f8;
      }
    </style>
  </defs>
  <path class="cls-2" d="M79.46,20.75h-5.09l-.02,7.11c0,3.42,2.92,4.12,5.13,4.21.29.01.52.25.52.55v4.61c0,.31-.25.55-.56.55-3.83-.09-7.03-1.13-8.93-3.08-2.66-2.74-2.6-5.87-2.58-6.14l.06-19.67c0-.3.25-.54.55-.54h5.34c.3,0,.55.25.55.55l-.04,6.47h5.09c.3,0,.55.24.55.55v4.3c0,.3-.24.55-.55.55Z"/>
  <path class="cls-2" d="M32.69,36.38V5.44c.01-.3-.23-.55-.53-.55h-5.35c-.3,0-.55.24-.55.55v30.94c0,.3.24.55.55.55h5.34c.3,0,.55-.24.55-.55Z"/>
  <path class="cls-2" d="M61.25,24.29c-1.64-.62-3.81-1.08-5.73-1.4-.95-.17-1.71-.41-2.26-.73-.94-.48-.95-1.96-.03-2.5,1.05-.71,3.61-.65,4.69.15.42.25.75.7.98,1.23.08.18.28.27.47.22l4.82-1.47c.32-.1.48-.46.33-.76-.61-1.28-1.55-2.38-2.84-3.24-3.15-2.27-9.64-2.24-12.65.12-2.7,1.74-3.37,6.5-1.29,8.96,1.76,2.11,4.61,2.86,7.37,3.44h.03c1.2.19,3.25.6,3.9,1.08,1.03.61.92,2.03-.06,2.69-.55.41-1.44.61-2.65.61-2.33,0-3.89-.85-4.59-2.81-.07-.18-.27-.3-.46-.25l-4.86,1.26c-.3.08-.48.39-.39.69.55,1.77,1.6,3.23,3.15,4.27,5.19,3.49,16.77,2.59,16.6-5.58,0-1.59-.42-2.88-1.24-3.83-.81-.93-1.92-1.65-3.29-2.15h0Z"/>
  <path class="cls-2" d="M42.52,14.49h-5.43c-.3,0-.55.24-.55.55v21.34c0,.3.24.55.55.55h5.43c.3,0,.55-.24.55-.55V15.04c0-.3-.24-.55-.55-.55Z"/>
  <path class="cls-1" d="M39.81,7.1c-1.96,0-3.55-1.59-3.55-3.55v3.75c0,1.96,1.59,3.55,3.55,3.55s3.55-1.59,3.55-3.55v-3.75c0,1.96-1.59,3.55-3.55,3.55Z"/>
  <path class="cls-2" d="M43.35,3.88c.18-1.95-1.25-3.68-3.2-3.87-1.95-.18-3.68,1.25-3.87,3.2-.18,1.95,1.25,3.68,3.2,3.87,1.95.18,3.68-1.25,3.87-3.2Z"/>
  <path class="cls-2" d="M11.83,14.13C5.29,14.13,0,19.42,0,25.95s5.29,11.83,11.83,11.83,11.83-5.29,11.83-11.83-5.29-11.83-11.83-11.83ZM11.83,31.76c-3.21,0-5.8-2.6-5.8-5.8s2.6-5.8,5.8-5.8,5.8,2.6,5.8,5.8-2.6,5.8-5.8,5.8Z"/>
</svg>