<?xml version="1.0" encoding="UTF-8"?>
<svg id="Camada_1" xmlns="http://www.w3.org/2000/svg" version="1.1" viewBox="0 0 84 120">
  <!-- Generator: Adobe Illustrator 30.3.0, SVG Export Plug-In . SVG Version: 2.1.3 Build 182)  -->
  <defs>
    <style>
      .st0 {
        fill: #1d1d1b;
      }

      .st0, .st1 {
        fill-rule: evenodd;
      }

      .st1 {
        fill: #f8f8f8;
      }
    </style>
  </defs>
  <path class="st0" d="M0,0v120h84.01V0H0Z"/>
  <path class="st1" d="M42.54,56.9c-1.16,0-3.09,1.94-3.87,4.26-.78,2.32-.78,4.26.78,4.26.83,0,2.05-1,2.96-2.4.7-1.08,1.27-2.47,1.48-3.45.32-1.56-.18-2.67-1.35-2.67h0Z"/>
  <path class="st1" d="M16.63,29.42c-.56-.53.39-1.55.39-1.55,0,0,6.97-7.74,10.44-11.61.96-1.07,1.88-1.65,2.4-1.96.83-.5,1.41-.61,2.03-.47.84.18,1.31,1.12,1,3.21l-12.72,78.31-.05.27c-.14,1.21-.39,2.71.39,2.71.39,0,.78,0,1.55-1.55,0-.37,12.2-22.37,14.1-26.25.1-.2.54-.87.75-1.09.26-.29.58-.62,1.02-.53.49.09.39.77,0,1.94-2.5,5.37-11.93,25.93-15.18,31.47-.27.46-1.18,1.82-1.46,2.17-3.24,3.98-8.43,4.1-7.71-2.67l6.57-44.13s4.8-27.76,5.68-31.68c.06-.25.27-1.59.21-2.12-.09-.89-.57-1.48-2.03-.26l-6.19,5.42s-.78.77-1.16.39l-.02-.02Z"/>
  <path class="st1" d="M62.26,46.06c4.64-2.32,6.96-1.94,6.18,1.16-.78,3.87-9.67,22.45-9.67,22.45l-14.31,29.81c-.78,1.55,0,2.32,1.16,1.94,3.87-1.55,9.67-3.49,25.91-9.68,0,0,1.59-.78,1.94.39.24.79-1.94,1.55-1.94,1.55,0,0-22.43,10.06-30.17,13.16-5.42,1.55-6.96-1.16-5.03-5.42,0,0,23.98-49.55,23.98-49.94.39-.77.39-1.83-1.16-1.16,0,0-10.4,4.74-11.21,5.04-.4.14-1.4.47-1.55-.39-.1-.64,1.16-1.16,1.16-1.16l14.69-7.74h.02Z"/>
</svg>