<?xml version="1.0" encoding="UTF-8"?><svg id="Layer_2" xmlns="http://www.w3.org/2000/svg" viewBox="0 0 1631 350.8"><defs><style>.cls-1{stroke:#000;stroke-linecap:round;stroke-linejoin:round;}</style></defs><g id="Layer_1-2"><path d="M1056.61,220.1c5.67,0,10.35-.71,14.02-2.13,3.67-1.41,6.34-3.71,8.01-6.88,1.67-3.17,2.5-7.59,2.5-13.27v-107.42h45.32v105.92c0,15.36-2.13,27.75-6.38,37.18-4.26,9.43-10.6,16.28-19.03,20.53-8.43,4.26-19.41,6.39-32.93,6.39-6.68,0-13.06-.42-19.15-1.25-6.09-.84-10.89-1.58-14.4-2.25v-38.06l1-1c7.18,1.67,14.19,2.42,21.03,2.25Z"/><path d="M1151.76,126.95c6.84-12.93,16.19-22.49,28.04-28.67,11.85-6.17,25.37-9.26,40.56-9.26s29.46,3.09,41.31,9.26c11.85,6.18,21.11,15.74,27.79,28.67,6.68,12.94,10.02,29.26,10.02,48.95s-3.05,34.39-9.14,47.07c-6.09,12.69-15.02,22.33-26.79,28.92-11.77,6.6-26.17,9.89-43.19,9.89s-30.88-3.34-42.57-10.02c-11.69-6.68-20.66-16.4-26.92-29.17-6.26-12.77-9.39-28.33-9.39-46.7,0-19.7,3.42-36.01,10.27-48.95ZM1190.2,205.2c2.42,5.51,6.13,9.68,11.14,12.52,5.01,2.84,11.35,4.26,19.03,4.26s14.02-1.46,19.03-4.38c5.01-2.92,8.72-7.09,11.14-12.52,2.42-5.42,3.63-12.31,3.63-20.66v-18.53c0-7.84-1.17-14.48-3.51-19.91-2.34-5.42-6.01-9.64-11.02-12.65s-11.44-4.51-19.28-4.51-13.86,1.5-19.03,4.51c-5.18,3-8.93,7.22-11.27,12.65-2.34,5.43-3.51,12.06-3.51,19.91v18.53c0,8.35,1.21,15.27,3.63,20.78Z"/><polygon points="1414.67 91.77 1414.67 155.37 1360.33 155.37 1360.33 91.77 1316.01 91.77 1316.01 259.03 1360.33 259.03 1360.33 194.18 1414.67 194.18 1414.67 259.03 1458.98 259.03 1458.98 91.77 1414.67 91.77"/><path d="M1480.02,91.77h48.58l58.09,101.19-.33-101.19h44.65v167.26h-44.65l-62.01-101.19.25,101.19h-44.57V91.77Z"/><path d="M22.03,220.1c5.67,0,10.35-.71,14.02-2.13,3.67-1.41,6.34-3.71,8.01-6.88,1.67-3.17,2.5-7.59,2.5-13.27v-107.42h45.32v105.92c0,15.36-2.13,27.75-6.38,37.18-4.26,9.43-10.6,16.28-19.03,20.53-8.43,4.26-19.41,6.39-32.93,6.39-6.68,0-13.06-.42-19.15-1.25-6.09-.84-10.89-1.58-14.4-2.25v-38.06l1-1c7.18,1.67,14.19,2.42,21.03,2.25Z"/><path d="M117.18,126.95c6.84-12.93,16.19-22.49,28.04-28.67,11.85-6.17,25.37-9.26,40.56-9.26s29.46,3.09,41.31,9.26c11.85,6.18,21.11,15.74,27.79,28.67,6.68,12.94,10.02,29.26,10.02,48.95s-3.05,34.39-9.14,47.07c-6.09,12.69-15.02,22.33-26.79,28.92-11.77,6.6-26.17,9.89-43.19,9.89s-30.88-3.34-42.57-10.02c-11.69-6.68-20.66-16.4-26.92-29.17-6.26-12.77-9.39-28.33-9.39-46.7,0-19.7,3.42-36.01,10.27-48.95ZM155.61,205.2c2.42,5.51,6.13,9.68,11.14,12.52,5.01,2.84,11.35,4.26,19.03,4.26s14.02-1.46,19.03-4.38c5.01-2.92,8.72-7.09,11.14-12.52,2.42-5.42,3.63-12.31,3.63-20.66v-18.53c0-7.84-1.17-14.48-3.51-19.91-2.34-5.42-6.01-9.64-11.02-12.65s-11.44-4.51-19.28-4.51-13.86,1.5-19.03,4.51c-5.18,3-8.93,7.22-11.27,12.65-2.34,5.43-3.51,12.06-3.51,19.91v18.53c0,8.35,1.21,15.27,3.63,20.78Z"/><polygon points="380.09 91.77 380.09 155.37 325.75 155.37 325.75 91.77 281.43 91.77 281.43 259.03 325.75 259.03 325.75 194.18 380.09 194.18 380.09 259.03 424.4 259.03 424.4 91.77 380.09 91.77"/><path d="M445.43,91.77h48.58l58.09,101.19-.33-101.19h44.65v167.26h-44.65l-62.01-101.19.25,101.19h-44.57V91.77Z"/><path class="cls-1" d="M754.28,328.55s.03-.06.05-.09"/><path d="M861.77,331.93c-.15.19-.3.37-.46.56l.35-.43s.04-.06.1-.13Z"/><path d="M992.02,218.74c-5.26-30.97-31.79-51.75-63.22-50.07-2.98.16-4.23,1.05-5.08,3.97-4.62,15.73-22.92,21.84-36.11,12.22-9.68-7.05-13.05-19.96-7.7-29.48,2.57-4.59,7.34-6.7,12.24-5.43-2.99,5.07-3.26,7.61-1.05,10.64,2.15,2.94,5.1,4.37,8.7,3.96,3.78-.43,6.22-2.82,7.71-6.16,3.62-8.11-1.29-17.68-10.63-20.84-13.02-4.4-26.41,2.67-30.81,16.21-7.73,23.77,7.3,43.73,21.45,50.82,4.4,2.21,9.33,3.37,14.41,5.15-.13,1.87-.51,4.27-.4,6.64.21,4.46-.23,9.24,1.24,13.29,4.91,13.53,15.14,21.26,29.16,23.69,13.1,2.27,25.02-6.77,26.83-19.94.64-4.65-.34-9.02-3.33-12.69-4.24-5.22-9.8-7.76-16.55-7.15-2.94.26-5.85,1.54-6.36,4.68-.32,1.98.39,4.58,1.56,6.26,1.79,2.58,4.71,2.19,7.44,1.17.75-.28,1.53-.52,2.29-.77,2.36,7.59-2.25,13.12-9.78,12.03-4.11-.6-7.24-2.75-9.26-6.29-2.79-4.91-3.35-10.2-2.53-15.79,1.6-10.96,17.46-20.03,29.93-17.33,9.18,1.98,14.49,8.32,18.83,16.14,11.93,21.52-1.42,46.05-17.97,54.46-9.5,4.83-19.21,4.5-28.94,1.32-19.23-6.28-32.02-18.51-34.99-39.29-.6-4.19-.56-8.47-.82-12.86-10.55.27-18.08-4.61-23.87-12.89-3.48-4.97-7.37-9.64-10.97-14.53-6.56-8.92-13.04-17.9-19.58-26.88.63-.9,1.13-1.7,1.72-2.43,8.8-11.05,17.63-22.07,26.4-33.13,5.68-7.17,13.09-10.04,22.11-9.35,1.22.09,2.59-.38,3.72-.94,3.22-1.6,5.13-3.98,4.5-7.92-.2-1.28.2-2.7.52-4.02,4.17-17.16,25.55-30.79,43.06-27.48,6.78,1.28,9.34,4.57,9.4,11.5.03,2.93-.67,4.24-3.95,4.36-5.1.19-7.28,4.52-5.03,9.22,1.95,4.06,7.05,5.96,11.89,4.18,5.79-2.13,9.45-6.45,11.42-12.15,3.76-10.91.27-22.64-9.05-30.53-3.41-2.88-6.99-5.56-10.62-8.43,5.17-6.78,6.12-13.94,1.54-21.28-2.87-4.6-7.18-6.78-13.09-6.3,4.23,7.24,4.38,14.16-1,20.58-5.21,6.23-12.48,6.86-19.8,6.47,0,2.9.09,5.42-.05,7.92-.05.92-.37,2.28-1,2.63-3.62,1.96-6.74,4.75-11.21,5.3-2.72.33-5.57,1.92-7.78,3.67-6.31,4.99-9.66,11.85-10.19,19.77-.31,4.68-2.72,7.44-6.53,8.99-7.79,3.17-13.87,8.43-19.42,14.51-.98,1.07-2.1,2.01-3.16,3.01-.22-.16-.44-.33-.66-.49.74-1.92,1.47-3.85,2.22-5.76,3.1-7.91,5.91-15.94,6.35-24.49.17-3.28,1.43-4.83,4.25-6.32,7.91-4.19,14.36-9.88,15.99-19.33,1.01-5.88.41-11.72-1.62-17.31-.83-2.27-.2-3.54,1.72-4.55,2.03-1.07,4-2.3,6.11-3.17,1.71-.7,2.29-1.64,2.29-3.48,0-3.02.17-6.08.62-9.06,1.51-9.89,7.55-14.87,17.5-14.66,1.03.02,2.06,0,3.1,0-.8-5.19-4.71-8.83-9.93-9.37-6.17-.63-11.52,1.41-16.41,4.98-1.14.83-2.25,1.71-3.11,2.37-2.45-2.19-4.36-4.58-6.83-5.99-10.17-5.84-20.79-5.89-31.27-1.02-5.85,2.72-9.67,7.59-11.19,13.99-1.3,5.48,2.36,10.96,7.87,11.96,3.98.72,8.45-1.58,10.17-5.22,1.47-3.11,1-4.29-3.14-7.97-.05-.05,0-.19,0-1.12,2.5.73,5.04.95,7.01,2.13,9.63,5.77,15.02,18.67,12.67,30.26-2.54,12.53-10.78,20.94-20.86,27.88-1.86,1.29-3.81,2.45-5.61,3.59.1.55.11.76.17.95.24.69.49,1.38.74,2.07,3.45,9.46,3.11,18.66-1.87,27.54-1.84,3.28-3.62,6.62-5.67,9.76-4.27,6.54-8.7,12.98-13.7,20.41-6.76-11.1-13.12-21.4-19.32-31.8-3.66-6.13-4.15-12.86-2.83-19.74.6-3.13,1.58-6.19,2.3-8.94-4.15-3.1-8.32-5.76-11.97-9.01-10.95-9.76-17.57-21.24-13.47-36.64,1.83-6.87,5.41-12.43,11.5-16.18,2.34-1.44,4.87-2.46,8-1.44-5.3,3.78-5.78,7.02-1.87,10.78,3.35,3.22,7.65,3.76,11.49,1.43,4.1-2.48,5.95-7.04,4.39-11.65-2.72-8.04-8.29-13.35-16.54-15.21-12.36-2.78-23.75-1.36-32.33,9.37-1.09-.87-2.05-1.68-3.06-2.42-4.78-3.51-10.01-5.53-16.07-5.2-4.73.25-9.7,3.7-10.49,9.44,1.25,0,2.5,0,3.74,0,8.99-.06,14.87,4.63,16.7,13.43.36,1.73.85,3.58.6,5.28-.81,5.54,1.33,8.65,6.6,10.69,4.59,1.78,4.39,2.31,3.15,7.07-4.01,15.39-.51,25.01,12.27,33.58,1.38.93,3.08,1.45,4.32,2.52,1.03.9,2,2.24,2.31,3.54,1.59,6.69,2.74,13.48,4.49,20.12,1.15,4.39,3.06,8.58,4.62,12.86-1.64-.82-2.77-1.98-3.87-3.17-5.05-5.49-10.26-10.88-17.34-13.67-5.47-2.16-8.5-5.32-9.04-11.62-1.03-12.05-8.82-19.76-20.76-22.65-3.1-.75-5.86-3.07-8.64-4.88-.53-.35-.57-1.67-.59-2.55-.07-2.55-.03-5.11-.03-7.69-16.72,2.07-29.56-10.94-21.22-26.85-5.17-.72-9.35.99-12.47,5.83-4.76,7.37-3.68,14.66,1.24,21.61-3.43,2.7-6.81,5.15-9.95,7.88-5.56,4.85-9.75,10.52-10.77,18.18-1.41,10.6,2.94,20.58,11.34,24.43,2.05.94,4.68,1.18,6.95.93,4.19-.47,7.27-4.44,7.03-8.32-.22-3.64-2.08-5.02-7.25-5.71-.86-.12-2.11-.99-2.32-1.75-1.95-7.1,1.93-12.66,9.27-13.83,6.1-.98,11.9.3,17.56,2.19,15.61,5.23,25.95,16.55,26.21,32.61.01.75.29,1.8.82,2.17,2.56,1.82,4.75,4.19,8.6,3.46,2.46-.47,5.38-.19,7.7.74,3.61,1.46,7.71,3.04,10.15,5.84,10.69,12.31,20.85,25.07,31.05,37.5-.59,1.08-.75,1.46-.99,1.79-10.74,14.44-21.51,28.85-32.2,43.32-4.55,6.15-10.76,9.07-18.18,9.82-1.11.11-2.23.17-3.56.26,0,1.42,0,2.66,0,3.89.06,6.74-.65,13.38-3.19,19.69-6.33,15.73-18.6,24.53-34.37,29.04-7.36,2.11-14.83,2.57-22.24,0-25.79-8.96-35.35-41.98-18.31-63.26,5.31-6.63,12.08-10.05,20.72-9.73,14.83.56,25.2,11.57,23.86,25.49-.79,8.23-6.11,14.07-13.07,14.5-5.68.36-11.36-4.23-8.62-11.9,1.6.36,3.2.84,4.84,1.06,2.99.41,5.04-.98,6.25-3.66,1.88-4.16-.93-8.36-6.05-9.07-8.8-1.22-18.13,5.45-19.81,14.16-2.39,12.4,8.6,25.51,21.55,25.98,17.39.62,39.15-16.01,35.5-38.14-.35-2.12-.33-4.31-.47-6.39.64-.25.92-.44,1.21-.47,11.53-1.26,20.28-7.19,27.36-16.05,11.25-14.07,11.94-31.47,4.65-44.69-6.57-11.92-23.62-15.38-34-7.11-7.17,5.71-7.98,16.28-1.67,21.7,3.34,2.87,8.16,2.77,11.79-.25,3.36-2.79,3.88-6.65,1.45-10.66-.39-.64-.75-1.29-1.19-2.07,7.78-.27,11.92,2.63,14.12,9.66,3.27,10.44-2.51,22.75-13.14,28-9.87,4.87-22.67,1.73-28.75-7.41-2.15-3.23-3.49-7-5.53-11.21-5.32.31-11.21.16-16.94,1.07-20.91,3.3-35.77,14.99-44.7,34-7.96,16.93-6.91,34.16-.15,51.17,4.34,10.93,10.47,20.77,20.04,27.97,13.76,10.34,29.21,11.5,45.41,7.75,4.32-1,8.59-2.24,13.64-3.58-4.65,8.3-9.42,15.49-17.22,20.01-4.71,2.73-9.56,2.75-14.26-.27-1.66-1.06-3.28-2.18-4.9-3.26-5.98,5.37-6.43,10.71-1.02,16.63,2.06,2.25,2.48,3.85,1.02,6.69-3.84,7.49-1.75,15.6-2.25,23.33,3.7-2.66,6.94-5.5,10.63-7.52,4.21-2.3,8.81-3.87,13.98-6.07,9.25,4.54,13.83,4.05,19.87-2.89-6.47-4.48-11.46-10.06-11.05-18.49.38-7.79,3.8-14.41,8.89-20.24.21,3.03-.04,5.92-.14,8.82-.49,13.82,3.44,26.03,13.38,35.94,7.39,7.35,15.78,12.04,26.76,9.54,9.27-2.1,21.48-9.01,22.98-23.06.09-.88.41-1.88.96-2.55,6.88-8.43,2.72-19.11-3.69-23.85-2.27-1.68-4.55-3.36-6.7-5.18-2.8-2.36-4.76-5.25-4.81-9.22.43-.06.83-.19,1.22-.17,2.57.18,4.69-.35,4.97-3.4.21-2.26-1.77-4.29-4.61-4.67-3.6-.49-6.85.48-9.7,2.73-5.01,3.97-7.28,11.09-5.25,17.57,1.13,3.64,2.82,7.1,4.25,10.65-10.71,8.51-11.31,14.26-2.44,24.83,2.86-1.35,3.76-3.59,4.21-6.36.63-3.89,3.82-5.06,6.83-2.65,2.11,1.69,2.79,3.79,1.55,6.39-3.43,7.22-13.84,10.17-20.46,5.63-7.48-5.13-11.77-12.43-11.98-21.36-.52-21.65,8.87-39.16,24.11-53.83,3.58-3.45,8.13-5.64,13.28-5.69,3.75-.03,6.48-1.84,9.31-4.22-3.59-4.14-4.28-8.92-3.3-13.94.58-2.96,1.39-5.92,2.52-8.71,5.1-12.63,13-23.58,20.95-34.49,1.56-2.14,3.19-4.24,5-6.64,9.93,13.14,19.62,25.89,25.84,40.81,3.21,7.7,5.1,15.61-.88,23.66,2.84,1.25,5.23,3.13,7.71,3.23,8.06.34,14.26,4.14,19.3,9.84,10.17,11.51,17.17,24.76,19.59,40.03,1.79,11.32-.33,21.68-9.48,29.7-3.46,3.03-7.39,4.21-11.89,3.59-5.45-.75-10.51-4.76-11.16-8.79-.5-3.13,1.32-5.81,4.24-6.25,2.88-.43,4.26.72,4.65,4.41.3,2.8,1.64,4.55,4.24,5.64,3.11-4.16,6.14-8.19,5.91-13.62-.24-5.8-4.98-8.29-8.67-11.35,1.39-3.05,2.9-5.82,3.95-8.75,2.44-6.78,1.38-13.02-3.71-18.28-3.31-3.43-7.45-4.52-12.08-3.42-2.35.56-3.55,2.26-3.34,4.63.2,2.29,1.83,3.12,3.99,3.08.71-.01,1.42,0,2.14,0-.14,4.3-1.56,6.97-5.32,9.98-2.29,1.83-4.7,3.51-6.95,5.38-5.24,4.35-9.47,14.19-3.42,22.25.85,1.13,1.56,2.59,1.71,3.97,1.04,9.38,6.53,15.53,14.56,19.44,8.94,4.35,18.05,5.76,27.11-.24,16.43-10.89,22.58-26.45,21.14-45.58-.15-1.92-.33-3.84-.5-5.76.27-.07.54-.13.81-.2,4.27,6.01,7.95,12.35,8.57,19.97.71,8.82-4.46,14.58-11.81,19.97,3.63,1.95,6.46,3.99,9.62,5.03,4.6,1.52,8.36-1.54,11.02-2.91,4.83,2.14,8.81,3.77,12.67,5.66,2.49,1.22,4.9,2.67,7.17,4.26,1.61,1.13,2.93,2.69,4.79,4.44,0-4.89.34-9.1-.1-13.23-.42-4-1.34-8.01-2.6-11.83-.67-2.04-.7-3.16.85-4.79,5.95-6.26,5.65-12.51-.67-17.53-.95.76-1.88,1.6-2.9,2.3-4.26,2.93-8.8,4.47-13.87,2.26-9.41-4.09-14.23-12.36-19.67-21.42,4.38,1.32,7.81,2.5,11.31,3.39,14.74,3.71,29.21,3.9,42.95-3.75,9.67-5.38,16.22-13.68,21.33-23.26,7.38-13.86,10.97-28.55,8.31-44.2Z"/></g></svg>